<mxfile modified="2022-08-04T13:40:46.307Z" host="app.diagrams.net" agent="5.0 (X11; Linux x86_64) AppleWebKit/537.36 (KHTML, like Gecko) Chrome/103.0.0.0 Safari/537.36" etag="2j2fWBHlsq18yi4svb85" version="20.2.2" type="github">
  <diagram id="Ht1M8jgEwFfnCIfOTk4-" name="Page-1">
    <mxGraphModel dx="1422" dy="769" grid="1" gridSize="10" guides="1" tooltips="1" connect="1" arrows="1" fold="1" page="1" pageScale="1" pageWidth="1169" pageHeight="827" math="0" shadow="0">
      <root>
        <mxCell id="0" />
        <mxCell id="1" parent="0" />
        <mxCell id="oo-HjWGms7W5NT-dYIS2-1" value="" style="edgeStyle=orthogonalEdgeStyle;rounded=0;orthogonalLoop=1;jettySize=auto;html=1;entryX=0;entryY=0.5;entryDx=0;entryDy=0;strokeWidth=2;" parent="1" source="hSxU9nhvMt24uW7oTp4U-1" target="rO6_hR8MWruGMyhy7iHL-1" edge="1">
          <mxGeometry x="0.6909" y="5" relative="1" as="geometry">
            <mxPoint x="50" y="752" as="targetPoint" />
            <Array as="points">
              <mxPoint x="320" y="117" />
              <mxPoint x="320" y="685" />
            </Array>
            <mxPoint as="offset" />
          </mxGeometry>
        </mxCell>
        <mxCell id="hSxU9nhvMt24uW7oTp4U-1" value="Skyone - VPN" style="sketch=0;outlineConnect=0;gradientColor=none;fontColor=#545B64;strokeColor=none;fillColor=#879196;dashed=0;verticalLabelPosition=top;verticalAlign=bottom;align=center;html=1;fontSize=12;fontStyle=0;aspect=fixed;shape=mxgraph.aws4.illustration_office_building;pointerEvents=1;labelPosition=center;" parent="1" vertex="1">
          <mxGeometry x="151.75" y="87" width="85.5" height="60.71" as="geometry" />
        </mxCell>
        <mxCell id="hSxU9nhvMt24uW7oTp4U-9" value="AWS - dotnet" style="points=[[0,0],[0.25,0],[0.5,0],[0.75,0],[1,0],[1,0.25],[1,0.5],[1,0.75],[1,1],[0.75,1],[0.5,1],[0.25,1],[0,1],[0,0.75],[0,0.5],[0,0.25]];outlineConnect=0;gradientColor=none;html=1;whiteSpace=wrap;fontSize=12;fontStyle=0;container=1;pointerEvents=0;collapsible=0;recursiveResize=0;shape=mxgraph.aws4.group;grIcon=mxgraph.aws4.group_aws_cloud;strokeColor=#232F3E;fillColor=none;verticalAlign=top;align=left;spacingLeft=30;fontColor=#232F3E;dashed=0;" parent="1" vertex="1">
          <mxGeometry x="380" y="20" width="750" height="780" as="geometry" />
        </mxCell>
        <mxCell id="hSxU9nhvMt24uW7oTp4U-52" value="Public subnet" style="points=[[0,0],[0.25,0],[0.5,0],[0.75,0],[1,0],[1,0.25],[1,0.5],[1,0.75],[1,1],[0.75,1],[0.5,1],[0.25,1],[0,1],[0,0.75],[0,0.5],[0,0.25]];outlineConnect=0;gradientColor=none;html=1;whiteSpace=wrap;fontSize=12;fontStyle=0;container=1;pointerEvents=0;collapsible=0;recursiveResize=0;shape=mxgraph.aws4.group;grIcon=mxgraph.aws4.group_security_group;grStroke=0;strokeColor=#248814;fillColor=#E9F3E6;verticalAlign=top;align=left;spacingLeft=30;fontColor=#248814;dashed=0;" parent="hSxU9nhvMt24uW7oTp4U-9" vertex="1">
          <mxGeometry x="20" y="290" width="200" height="250" as="geometry" />
        </mxCell>
        <mxCell id="hSxU9nhvMt24uW7oTp4U-18" value="security group&lt;br&gt;lb" style="image;html=1;image=img/lib/clip_art/networking/Firewall_02_128x128.png" parent="hSxU9nhvMt24uW7oTp4U-52" vertex="1">
          <mxGeometry x="40" y="109.99" width="20" height="30" as="geometry" />
        </mxCell>
        <mxCell id="VFxCpets81M08XsOUOsf-4" value="ALB" style="sketch=0;outlineConnect=0;fontColor=#232F3E;gradientColor=none;fillColor=#4D27AA;strokeColor=none;dashed=0;verticalLabelPosition=bottom;verticalAlign=top;align=center;html=1;fontSize=12;fontStyle=1;aspect=fixed;pointerEvents=1;shape=mxgraph.aws4.application_load_balancer;labelPosition=center;" parent="hSxU9nhvMt24uW7oTp4U-52" vertex="1">
          <mxGeometry x="90" y="92.36999999999999" width="65.25" height="65.25" as="geometry" />
        </mxCell>
        <mxCell id="hSxU9nhvMt24uW7oTp4U-30" value="Public subnet" style="points=[[0,0],[0.25,0],[0.5,0],[0.75,0],[1,0],[1,0.25],[1,0.5],[1,0.75],[1,1],[0.75,1],[0.5,1],[0.25,1],[0,1],[0,0.75],[0,0.5],[0,0.25]];outlineConnect=0;gradientColor=none;html=1;whiteSpace=wrap;fontSize=12;fontStyle=0;container=1;pointerEvents=0;collapsible=0;recursiveResize=0;shape=mxgraph.aws4.group;grIcon=mxgraph.aws4.group_security_group;grStroke=0;strokeColor=#248814;fillColor=#E9F3E6;verticalAlign=top;align=left;spacingLeft=30;fontColor=#248814;dashed=0;" parent="hSxU9nhvMt24uW7oTp4U-9" vertex="1">
          <mxGeometry x="260" y="29" width="400" height="510" as="geometry" />
        </mxCell>
        <mxCell id="zXQp48xS7FL1OiD5PY-Q-1" value="" style="sketch=0;points=[[0,0,0],[0.25,0,0],[0.5,0,0],[0.75,0,0],[1,0,0],[0,1,0],[0.25,1,0],[0.5,1,0],[0.75,1,0],[1,1,0],[0,0.25,0],[0,0.5,0],[0,0.75,0],[1,0.25,0],[1,0.5,0],[1,0.75,0]];outlineConnect=0;fontColor=#232F3E;gradientColor=#F78E04;gradientDirection=north;fillColor=#D05C17;strokeColor=#ffffff;dashed=0;verticalLabelPosition=bottom;verticalAlign=top;align=center;html=1;fontSize=12;fontStyle=0;aspect=fixed;shape=mxgraph.aws4.resourceIcon;resIcon=mxgraph.aws4.ec2;" vertex="1" parent="hSxU9nhvMt24uW7oTp4U-30">
          <mxGeometry x="110" y="98.71000000000001" width="78" height="78" as="geometry" />
        </mxCell>
        <mxCell id="hSxU9nhvMt24uW7oTp4U-47" value="security group&lt;br&gt;bastion" style="image;html=1;image=img/lib/clip_art/networking/Firewall_02_128x128.png" parent="hSxU9nhvMt24uW7oTp4U-9" vertex="1">
          <mxGeometry x="150" y="110" width="20" height="30" as="geometry" />
        </mxCell>
        <mxCell id="rO6_hR8MWruGMyhy7iHL-1" value="Public subnet" style="points=[[0,0],[0.25,0],[0.5,0],[0.75,0],[1,0],[1,0.25],[1,0.5],[1,0.75],[1,1],[0.75,1],[0.5,1],[0.25,1],[0,1],[0,0.75],[0,0.5],[0,0.25]];outlineConnect=0;gradientColor=none;html=1;whiteSpace=wrap;fontSize=12;fontStyle=0;container=1;pointerEvents=0;collapsible=0;recursiveResize=0;shape=mxgraph.aws4.group;grIcon=mxgraph.aws4.group_security_group;grStroke=0;strokeColor=#248814;fillColor=#E9F3E6;verticalAlign=top;align=left;spacingLeft=30;fontColor=#248814;dashed=0;" parent="hSxU9nhvMt24uW7oTp4U-9" vertex="1">
          <mxGeometry x="260" y="590" width="400" height="150" as="geometry" />
        </mxCell>
        <mxCell id="rO6_hR8MWruGMyhy7iHL-4" value="SQL Server" style="sketch=0;outlineConnect=0;fontColor=#232F3E;gradientColor=none;fillColor=#2E27AD;strokeColor=none;dashed=0;verticalLabelPosition=bottom;verticalAlign=top;align=center;html=1;fontSize=12;fontStyle=0;aspect=fixed;pointerEvents=1;shape=mxgraph.aws4.rds_instance;" parent="rO6_hR8MWruGMyhy7iHL-1" vertex="1">
          <mxGeometry x="168.71" y="30" width="78" height="78" as="geometry" />
        </mxCell>
        <mxCell id="hSxU9nhvMt24uW7oTp4U-12" value="" style="edgeStyle=orthogonalEdgeStyle;html=1;endArrow=block;elbow=vertical;startArrow=none;endFill=1;strokeColor=#000000;rounded=0;strokeWidth=2;" parent="1" source="VFxCpets81M08XsOUOsf-3" target="hSxU9nhvMt24uW7oTp4U-52" edge="1">
          <mxGeometry width="100" relative="1" as="geometry">
            <mxPoint x="310" y="560" as="sourcePoint" />
            <mxPoint x="480" y="566" as="targetPoint" />
            <Array as="points">
              <mxPoint x="370" y="430" />
              <mxPoint x="370" y="430" />
            </Array>
          </mxGeometry>
        </mxCell>
        <mxCell id="hSxU9nhvMt24uW7oTp4U-45" style="edgeStyle=orthogonalEdgeStyle;rounded=0;orthogonalLoop=1;jettySize=auto;html=1;startArrow=none;startFill=0;strokeColor=#06080A;strokeWidth=2;" parent="1" source="hSxU9nhvMt24uW7oTp4U-1" edge="1" target="hSxU9nhvMt24uW7oTp4U-30">
          <mxGeometry relative="1" as="geometry">
            <mxPoint x="640" y="120" as="targetPoint" />
            <Array as="points">
              <mxPoint x="580" y="117" />
              <mxPoint x="580" y="117" />
            </Array>
          </mxGeometry>
        </mxCell>
        <mxCell id="hSxU9nhvMt24uW7oTp4U-46" value="RDP" style="edgeLabel;html=1;align=center;verticalAlign=middle;resizable=0;points=[];fontStyle=1" parent="hSxU9nhvMt24uW7oTp4U-45" vertex="1" connectable="0">
          <mxGeometry x="0.0572" y="1" relative="1" as="geometry">
            <mxPoint as="offset" />
          </mxGeometry>
        </mxCell>
        <mxCell id="VFxCpets81M08XsOUOsf-3" value="Clientes" style="sketch=0;outlineConnect=0;gradientColor=none;fontColor=#545B64;strokeColor=none;fillColor=#879196;dashed=0;verticalLabelPosition=bottom;verticalAlign=top;align=center;html=1;fontSize=12;fontStyle=1;aspect=fixed;shape=mxgraph.aws4.illustration_users;pointerEvents=1" parent="1" vertex="1">
          <mxGeometry x="144.5" y="380" width="100" height="100" as="geometry" />
        </mxCell>
      </root>
    </mxGraphModel>
  </diagram>
</mxfile>
